<?xml version="1.0" encoding="utf-8"?>
<!-- Generator: Adobe Illustrator 24.1.0, SVG Export Plug-In . SVG Version: 6.00 Build 0)  -->
<svg version="1.1" id="Layer_2_1_" xmlns="http://www.w3.org/2000/svg" xmlns:xlink="http://www.w3.org/1999/xlink" x="0px" y="0px"
	 viewBox="0 0 527 139.1" style="enable-background:new 0 0 527 139.1;" xml:space="preserve">
<style type="text/css">
	.st0{fill:url(#SVGID_1_);}
	.st1{fill:#FFFFFF;}
</style>
<linearGradient id="SVGID_1_" gradientUnits="userSpaceOnUse" x1="-6.1164" y1="0.2848" x2="136.5556" y2="136.3382" gradientTransform="matrix(1 0 0 -1 0 142)">
	<stop  offset="0" style="stop-color:#FEE140"/>
	<stop  offset="0.1891" style="stop-color:#FDD14C"/>
	<stop  offset="0.5559" style="stop-color:#FCA96D"/>
	<stop  offset="1" style="stop-color:#FA709A"/>
</linearGradient>
<path class="st0" d="M103.2,20.9l35.9,35.9l-25.5,25.5l-10.4,10.4l-25.5,25.5L20.9,61.4L31.3,51l20.9,20.9l15.1-15.1L46.4,35.9
	l10.4-10.4l20.9,20.9L103.2,20.9 M103.2,71.9l15.1-15.1l-15.1-15.1L88.1,56.8L103.2,71.9 M77.7,97.4l15.1-15.1L89,78.6L77.7,67.2
	L62.6,82.3L77.7,97.4 M103.2,0L92.8,10.4L77.7,25.5L67.2,15.1L56.8,4.6L46.4,15.1L35.9,25.5L25.5,35.9l0,0l-4.6,4.6L10.4,51L0,61.4
	l10.4,10.4l56.8,56.8L77.6,139L88,128.6l25.5-25.5l10.4-10.4l25.5-25.5L160,56.8l-10.4-10.4l-35.9-35.9L103.2,0L103.2,0z"/>
<path class="st1" d="M218.4,76.1c0,10.4-7.6,18.5-16.7,18.5c-4.7,0-8.1-1.6-10.4-4.3v3.3h-10.5v-49h10.5v17.3
	c2.3-2.7,5.7-4.3,10.4-4.3C210.9,57.6,218.4,65.6,218.4,76.1z M207.9,76.1c0-5.2-3.5-8.5-8.3-8.5s-8.3,3.3-8.3,8.5
	c0,5.3,3.5,8.5,8.3,8.5S207.9,81.3,207.9,76.1z M245.4,57.9v11.9c-4.3-0.7-10.5,1.1-10.5,8v15.8h-10.5v-35h10.5v6.2
	C236.3,60.1,241,57.9,245.4,57.9z M283.4,58.6v35h-10.5v-3.3c-1.9,2.6-5.4,4.3-10,4.3c-7.1,0-13.1-5-13.1-14.5V58.6h10.5v20
	c0,4.3,2.7,6.4,6.1,6.4c3.9,0,6.5-2.2,6.5-7.2V58.6H283.4z M304.4,68.7V81c0,3,2.6,3.3,7.2,3v9.5c-13.7,1.4-17.7-2.7-17.7-12.5V68.7
	h-5.6V58.6h5.6v-6.7l10.5-3.2v9.8h7.2v10.1L304.4,68.7L304.4,68.7z M334.6,85.2c2.9,0,5.3-1.1,6.7-2.7l8.4,4.8
	c-3.4,4.8-8.6,7.2-15.3,7.2c-12,0-19.4-8.1-19.4-18.5s7.6-18.5,18.6-18.5c10.2,0,17.8,7.9,17.8,18.5c0,1.5-0.1,2.9-0.4,4.2h-24.9
	C327.6,83.9,330.8,85.2,334.6,85.2z M341.1,72.4c-1.1-4.1-4.3-5.5-7.4-5.5c-4,0-6.7,2-7.6,5.5H341.1z M395.1,76.1
	c0,10.4-7.6,18.5-16.7,18.5c-4.7,0-8.1-1.6-10.4-4.3v3.3h-10.5v-49H368v17.3c2.3-2.7,5.7-4.3,10.4-4.3
	C387.6,57.6,395.1,65.6,395.1,76.1z M384.6,76.1c0-5.2-3.5-8.5-8.3-8.5s-8.3,3.3-8.3,8.5c0,5.3,3.5,8.5,8.3,8.5
	S384.6,81.3,384.6,76.1z M437,58.6v35h-10.5v-3.3c-2.3,2.7-5.7,4.3-10.4,4.3c-9.2,0-16.7-8.1-16.7-18.5s7.6-18.5,16.7-18.5
	c4.7,0,8.1,1.6,10.4,4.3v-3.3H437z M426.5,76.1c0-5.2-3.5-8.5-8.3-8.5s-8.3,3.3-8.3,8.5c0,5.3,3.5,8.5,8.3,8.5
	S426.5,81.3,426.5,76.1z M478.3,72.1v21.5h-10.5v-20c0-4.3-2.7-6.4-6.1-6.4c-3.8,0-6.5,2.2-6.5,7.2v19.1h-10.5v-35h10.5v3.3
	c1.9-2.6,5.4-4.3,10-4.3C472.3,57.6,478.3,62.6,478.3,72.1z M507.2,93.6L496,78.1v15.5h-10.5v-49H496v29.3l10.5-15.3h12.2L506,76.1
	l13.1,17.5H507.2z"/>
</svg>
